<?xml version="1.0" encoding="utf-8"?>
<!-- Generator: Adobe Illustrator 26.0.0, SVG Export Plug-In . SVG Version: 6.00 Build 0)  -->
<svg version="1.1" id="Layer_1" xmlns="http://www.w3.org/2000/svg"
	xmlns:xlink="http://www.w3.org/1999/xlink" x="0px" y="0px"
	width="1938px" height="218px" viewBox="0 0 1938 218" style="enable-background:new 0 0 1938 218;"
	xml:space="preserve">
<style type="text/css">
	.st0{opacity:0.25;fill:#d301fd8a;}
</style>
<path class="st0" d="M1938,96c0,39.1,0,83,0.1,122.1c-1.6,0.1-0.8-0.1-4.6-0.1c-223.4-0.1-446.9-0.2-670.4-0.2
	c-419.4,0-1263.2,0.3-1263.2,0.3s-0.2-4.1-0.2-5.3S-0.1,135-0.1,96c2.8-1.5,4.5-3,7-4c46.1-18.1,92.9-33.9,140.5-47.2
	C207.5,28,268.4,15.6,330.3,8c14.5-1.8,73.3-7.7,136-7.7c69.7,0,144,6,161.1,8c71,8.2,140.8,22.4,209.9,40.3
	c41.9,10.9,83.5,23.2,124.8,36.3c61.6,19.6,122.3,41.9,183.2,63.6c36.8,13.1,74.8,21.7,113.4,27.9c27.1,4.3,54.4,7.5,81.9,9.2
	c15,0.9,29.9,1.3,44.9,2.1c16,0.9,32,1.1,47.9,0.6c20.4-0.7,40.9-1.1,61.3-2.6c23.6-1.7,47.1-3.5,70.6-6.1
	c36.4-4,72.7-9.3,108.8-15.7c45.6-8.1,90.8-18.3,135.7-29.6c40.8-10.3,80.7-23,120.3-37C1932.7,96.4,1935.4,96,1938,96z"/>
</svg>